<svg xmlns="http://www.w3.org/2000/svg" xmlns:xlink="http://www.w3.org/1999/xlink" version="1.1" width="160" height="50" viewBox="0 0 160 50" xml:space="preserve">
<desc>Created with Fabric.js 3.5.0</desc>
<defs>
</defs>
<rect x="0" y="0" width="100%" height="100%" fill="rgba(17,23,43,0)"/>
<g transform="matrix(1.0542 0 0 1.1733 77.0027 25.3325)" id="303417">
<g style="" vector-effect="non-scaling-stroke">
		<g transform="matrix(1 0 0 1 -30 25)">
<rect style="stroke: none; stroke-width: 1; stroke-dasharray: none; stroke-linecap: butt; stroke-dashoffset: 0; stroke-linejoin: miter; stroke-miterlimit: 4; is-custom-font: none; font-file-url: none; fill: rgb(255,255,255); fill-opacity: 0; fill-rule: nonzero; opacity: 1;" x="-50" y="-50" rx="0" ry="0" width="100" height="100"/>
</g>
		<g transform="matrix(0.0798 0 0 0.0798 -50.6691 -0.0024)" id="963096">
<path style="stroke: none; stroke-width: 1; stroke-dasharray: none; stroke-linecap: butt; stroke-dashoffset: 0; stroke-linejoin: miter; stroke-miterlimit: 4; is-custom-font: none; font-file-url: none; fill: rgb(17,23,43); fill-rule: nonzero; opacity: 1;" vector-effect="non-scaling-stroke" transform=" translate(-219.268, -219.268)" d="M 421.981 16.562 C 410.941 5.519 397.711 0 382.298 0 H 56.248 C 40.83 0 27.604 5.521 16.561 16.562 C 5.52 27.6 0.001 40.828 0.001 56.243 V 382.29 c 0 15.413 5.518 28.644 16.56 39.683 c 11.043 11.04 24.272 16.563 39.687 16.563 h 326.046 c 15.41 0 28.644 -5.523 39.684 -16.563 c 11.043 -11.039 16.557 -24.27 16.557 -39.683 V 56.243 C 438.534 40.825 433.021 27.604 421.981 16.562 z M 157.462 158.025 c 17.224 -16.652 37.924 -24.982 62.097 -24.982 c 24.36 0 45.153 8.33 62.381 24.982 c 17.228 16.655 25.837 36.785 25.837 60.386 c 0 23.598 -8.609 43.729 -25.837 60.379 c -17.228 16.659 -38.014 24.988 -62.381 24.988 c -24.172 0 -44.87 -8.336 -62.097 -24.988 c -17.228 -16.652 -25.841 -36.781 -25.841 -60.379 C 131.621 194.81 140.234 174.681 157.462 158.025 z M 388.865 370.589 c 0 4.945 -1.718 9.083 -5.141 12.416 c -3.433 3.33 -7.519 4.996 -12.282 4.996 h -305.2 c -4.948 0 -9.091 -1.666 -12.419 -4.996 c -3.333 -3.326 -4.998 -7.471 -4.998 -12.416 V 185.575 H 89.08 c -3.805 11.993 -5.708 24.462 -5.708 37.402 c 0 36.553 13.322 67.715 39.969 93.511 c 26.65 25.786 58.721 38.685 96.217 38.685 c 24.744 0 47.583 -5.903 68.527 -17.703 c 20.937 -11.807 37.486 -27.839 49.676 -48.112 c 12.183 -20.272 18.274 -42.4 18.274 -66.38 c 0 -12.94 -1.91 -25.406 -5.715 -37.402 h 38.547 v 185.014 H 388.865 z M 388.865 115.626 c 0 5.52 -1.903 10.184 -5.716 13.99 c -3.805 3.809 -8.466 5.711 -13.989 5.711 h -49.676 c -5.517 0 -10.185 -1.903 -13.99 -5.711 c -3.806 -3.806 -5.708 -8.47 -5.708 -13.99 V 68.522 c 0 -5.33 1.902 -9.945 5.708 -13.848 c 3.806 -3.901 8.474 -5.854 13.99 -5.854 h 49.676 c 5.523 0 10.185 1.952 13.989 5.854 c 3.812 3.903 5.716 8.518 5.716 13.848 V 115.626 z" stroke-linecap="round"/>
</g>
		<g transform="matrix(1 0 0 1 24.4127 2.075)" id="7149">
<path style="stroke: none; stroke-width: 1; stroke-dasharray: none; stroke-linecap: butt; stroke-dashoffset: 0; stroke-linejoin: miter; stroke-miterlimit: 4; is-custom-font: none; font-file-url: none; fill: rgb(17,23,43); fill-rule: nonzero; opacity: 1;" transform=" translate(-0.73, -2.075)" d="M -45.45 -9.6 L -45.45 -9.6 L -39.8 -9.6 Q -41.52 -8.27 -44.55 -1.4 L -44.55 -1.4 Q -45.33 0.35 -46.31 3.19 Q -47.3 6.03 -47.3 7.33 L -47.3 7.33 Q -47.3 7.68 -47.2 7.85 L -47.2 7.85 L -50.42 7.85 Q -49.73 4.83 -47.48 -0.55 L -47.48 -0.55 Q -44.48 -7.7 -43.6 -8.67 L -43.6 -8.67 Q -45.73 -8.62 -47.91 -7.81 Q -50.1 -7 -50.45 -5.87 L -50.45 -5.87 Q -50.48 -5.8 -50.55 -5.8 L -50.55 -5.8 Q -50.77 -5.8 -50.77 -6.12 L -50.77 -6.12 Q -50.77 -6.17 -50.73 -6.37 L -50.73 -6.37 Q -50.25 -7.75 -49.35 -8.5 Q -48.45 -9.25 -47.59 -9.42 Q -46.73 -9.6 -45.45 -9.6 Z M -31.67 2.83 L -31.67 2.83 Q -32.6 4.38 -33.36 5.42 Q -34.13 6.45 -35.1 7.23 Q -36.08 8 -36.88 8 L -36.88 8 Q -38.35 8 -38.35 6.38 Q -38.35 4.75 -36.48 -0.15 L -36.48 -0.15 Q -36.38 -0.37 -36.38 -0.62 L -36.38 -0.62 Q -36.38 -1.15 -37.04 -1.15 Q -37.7 -1.15 -38.34 -0.73 Q -38.98 -0.32 -39.5 0.44 Q -40.02 1.2 -40.45 1.99 Q -40.88 2.78 -41.24 3.8 Q -41.6 4.83 -41.81 5.52 Q -42.02 6.2 -42.24 6.99 Q -42.45 7.78 -42.48 7.85 L -42.48 7.85 L -44.9 7.85 Q -44.9 7.33 -42.7 1.83 L -42.7 1.83 Q -41.8 -0.75 -41.8 -1.77 L -41.8 -1.77 Q -41.8 -2.02 -41.88 -2.15 L -41.88 -2.15 L -40.83 -2.15 Q -39.95 -2.15 -39.7 -1.97 Q -39.45 -1.8 -39.45 -1.5 Q -39.45 -1.2 -39.73 -0.27 L -39.73 -0.27 Q -37.63 -2.27 -35.5 -2.27 L -35.5 -2.27 Q -34.08 -2.27 -34.08 -0.97 L -34.08 -0.97 Q -34.08 -0.55 -34.2 -0.12 Q -34.33 0.3 -34.83 1.58 L -34.83 1.58 Q -35.92 4.38 -35.92 5.33 L -35.92 5.33 Q -35.92 5.93 -35.48 5.93 L -35.48 5.93 Q -35.15 5.93 -34.56 5.48 Q -33.98 5.03 -33.59 4.54 Q -33.2 4.05 -32.74 3.32 Q -32.27 2.58 -31.95 2.03 Q -31.63 1.48 -31.57 1.48 L -31.57 1.48 Q -31.42 1.48 -31.42 1.94 Q -31.42 2.4 -31.67 2.83 Z M -22.2 2.78 L -22.2 2.78 Q -24.08 5.9 -25.6 7.13 Q -27.13 8.35 -29.55 8.35 L -29.55 8.35 Q -30.95 8.35 -31.9 7.82 Q -32.85 7.28 -32.85 6.23 L -32.85 6.23 Q -32.85 5.63 -32.5 5.13 Q -32.15 4.63 -31.54 4.63 Q -30.93 4.63 -30.75 5.08 L -30.75 5.08 Q -31.23 5.55 -31.23 6.18 L -31.23 6.18 Q -31.23 7.43 -29.83 7.43 L -29.83 7.43 Q -29 7.43 -28.39 6.85 Q -27.78 6.28 -27.78 5.59 Q -27.78 4.9 -28.08 4.38 Q -28.38 3.85 -28.8 3.45 Q -29.23 3.05 -29.65 2.65 L -29.65 2.65 Q -30.68 1.68 -30.68 0.42 Q -30.68 -0.85 -29.71 -1.71 Q -28.75 -2.57 -27.08 -2.57 L -27.08 -2.57 Q -26.03 -2.57 -25.3 -2.2 Q -24.58 -1.82 -24.58 -1.03 Q -24.58 -0.25 -25.05 0.33 Q -25.53 0.9 -26.34 0.9 Q -27.15 0.9 -27.15 0.15 L -27.15 0.15 Q -27.15 -0.02 -26.58 -0.37 Q -26 -0.72 -26 -1.1 Q -26 -1.47 -26.31 -1.66 Q -26.63 -1.85 -27.2 -1.85 Q -27.78 -1.85 -28.31 -1.45 Q -28.85 -1.05 -28.85 -0.4 Q -28.85 0.25 -28.3 0.83 Q -27.75 1.4 -27.1 1.8 Q -26.45 2.2 -25.9 2.92 Q -25.35 3.63 -25.35 4.42 Q -25.35 5.2 -25.71 5.83 Q -26.08 6.45 -26.58 6.83 L -26.58 6.83 Q -25.18 6.23 -23.6 3.83 L -23.6 3.83 Q -23.45 3.63 -23.08 3 L -23.08 3 Q -22.2 1.43 -22.1 1.43 L -22.1 1.43 Q -21.95 1.43 -21.95 1.89 Q -21.95 2.35 -22.2 2.78 Z M -15.37 -6.47 L -15.37 -6.47 Q -16.6 -5.62 -18.13 -2.12 L -18.13 -2.12 L -15.6 -2.12 L -15.57 -2.1 Q -15.57 -1.97 -15.85 -1.66 Q -16.13 -1.35 -16.32 -1.35 L -16.32 -1.35 L -18.47 -1.35 Q -20.45 3.55 -20.45 4.95 L -20.45 4.95 Q -20.45 5.9 -19.85 5.9 L -19.85 5.9 Q -18.97 5.9 -17.8 4.4 L -17.8 4.4 Q -17.52 4.08 -17.07 3.3 L -17.07 3.3 Q -15.92 1.45 -15.87 1.45 L -15.87 1.45 Q -15.72 1.45 -15.72 1.85 L -15.72 1.85 Q -15.75 2.8 -17.8 5.55 L -17.8 5.55 Q -18.47 6.45 -19.42 7.23 Q -20.38 8 -21.15 8 L -21.15 8 Q -22.57 8 -22.57 6 L -22.57 6 Q -22.57 4.33 -21.77 2.15 L -21.77 2.15 L -21.77 2.13 Q -22.25 3 -22.59 3.43 Q -22.92 3.85 -22.97 3.85 L -22.97 3.85 Q -23.07 3.85 -23.07 3.54 Q -23.07 3.23 -22.74 2.53 Q -22.4 1.83 -21.81 0.7 Q -21.22 -0.42 -20.85 -1.35 L -20.85 -1.35 L -22.52 -1.35 Q -22.6 -1.35 -22.6 -1.46 Q -22.6 -1.57 -22.41 -1.85 Q -22.22 -2.12 -22.13 -2.12 L -22.13 -2.12 L -20.22 -2.12 Q -18.42 -6.45 -16.57 -6.45 L -16.57 -6.45 Q -15.5 -6.45 -15.37 -6.47 Z M -10.2 -2.2 L -10.2 -2.2 L -8.92 -2.17 L -8.67 -2.17 Q -9.05 -1.9 -9.74 -0.55 Q -10.42 0.8 -10.76 1.49 Q -11.1 2.18 -11.51 3.34 Q -11.92 4.5 -11.92 5.23 Q -11.92 5.95 -11.42 5.95 L -11.42 5.95 Q -11.1 5.93 -10.51 5.49 Q -9.92 5.05 -9.54 4.57 Q -9.15 4.08 -8.69 3.32 Q -8.22 2.55 -7.89 1.99 Q -7.55 1.43 -7.5 1.43 L -7.5 1.43 Q -7.32 1.43 -7.32 1.89 Q -7.32 2.35 -7.57 2.78 L -7.57 2.78 Q -8.65 4.55 -9.35 5.5 Q -10.05 6.45 -11.04 7.24 Q -12.02 8.03 -12.82 8.03 L -12.82 8.03 Q -14.25 8.03 -14.25 5.93 L -14.25 5.93 Q -14.25 4.5 -13.7 2.7 Q -13.15 0.9 -12.07 -0.77 L -12.07 -0.77 Q -12.95 -0.07 -13.82 -0.07 L -13.82 -0.07 Q -14.1 -0.07 -14.4 -0.2 L -14.4 -0.2 Q -16.17 3.3 -16.31 3.3 Q -16.45 3.3 -16.45 2.89 Q -16.45 2.48 -16.14 1.74 Q -15.82 1 -15.46 0.33 Q -15.1 -0.35 -15.07 -0.42 L -15.07 -0.42 Q -15.97 -0.87 -15.97 -1.87 L -15.97 -1.87 Q -15.97 -2.37 -15.66 -2.77 Q -15.35 -3.17 -14.8 -3.17 Q -14.25 -3.17 -13.9 -2.82 L -13.9 -2.82 Q -13.95 -2.67 -13.95 -2.37 L -13.95 -2.37 Q -13.95 -1.7 -13.46 -1.31 Q -12.97 -0.92 -12.27 -0.92 L -12.27 -0.92 Q -12.07 -0.92 -11.97 -0.95 L -11.97 -0.95 Q -11.1 -2.2 -10.2 -2.2 Z M 1.73 -2.15 L 1.73 -2.15 L 2.98 -2.12 L 3.23 -2.12 Q 2.4 -1.45 1.2 1.29 Q 0 4.03 0 5.28 L 0 5.28 Q 0 5.93 0.45 5.93 L 0.45 5.93 Q 1.9 5.93 4.15 1.65 L 4.15 1.65 Q 4.25 1.48 4.33 1.48 L 4.33 1.48 Q 4.48 1.48 4.48 1.94 Q 4.48 2.4 4.23 2.83 L 4.23 2.83 Q 1.15 8 -0.92 8 L -0.92 8 Q -2.27 8 -2.27 5.93 L -2.27 5.93 Q -2.27 4.38 -1.75 2.88 L -1.75 2.88 Q -4.6 7.93 -7.02 7.93 L -7.02 7.93 Q -8.7 7.93 -8.7 5.63 L -8.7 5.63 Q -8.7 3.88 -7.94 2.08 Q -7.17 0.28 -5.75 -0.98 Q -4.32 -2.25 -2.62 -2.25 L -2.62 -2.25 Q -1.82 -2.25 -1.12 -1.88 Q -0.42 -1.52 -0.2 -0.72 L -0.2 -0.72 Q 0.08 -1.3 0.65 -1.72 Q 1.23 -2.15 1.73 -2.15 Z M -0.35 -0.5 L -0.35 -0.5 Q -0.6 -1.3 -1.52 -1.3 L -1.52 -1.3 Q -3.17 -1.3 -4.72 0.99 Q -6.27 3.28 -6.27 5.08 L -6.27 5.08 Q -6.27 5.85 -5.67 5.85 L -5.67 5.85 Q -5.02 5.85 -4.15 5.04 Q -3.27 4.23 -2.57 3.13 L -2.57 3.13 Q -1.02 0.68 -0.35 -0.5 Z M 14.23 -2.15 L 14.23 -2.15 L 15.23 -2.15 Q 14.7 -1.8 14.08 -0.62 Q 13.45 0.55 13.01 1.69 Q 12.58 2.83 11.88 4.8 L 11.88 4.8 Q 10.33 9.25 9.18 10.72 Q 8.03 12.18 6.59 12.97 Q 5.15 13.75 3.98 13.75 L 3.98 13.75 Q 1.48 13.75 1.48 12.18 L 1.48 12.18 Q 1.48 11.55 1.86 11 Q 2.25 10.45 2.9 10.45 Q 3.55 10.45 3.78 10.98 L 3.78 10.98 Q 3.53 11.13 3.39 11.5 Q 3.25 11.88 3.25 12.22 Q 3.25 12.55 3.51 12.78 Q 3.78 13 4.2 13 L 4.2 13 Q 5.4 13 6.38 11.79 Q 7.35 10.58 8.03 8.98 L 8.03 8.98 Q 8.2 8.55 10.43 2.38 L 10.43 2.38 Q 7.48 7.93 4.88 7.93 L 4.88 7.93 Q 3.18 7.93 3.18 5.63 L 3.18 5.63 Q 3.18 3.88 3.94 2.08 Q 4.7 0.28 6.13 -0.98 Q 7.55 -2.25 9.25 -2.25 L 9.25 -2.25 Q 10.03 -2.25 10.74 -1.9 Q 11.45 -1.55 11.65 -0.75 L 11.65 -0.75 Q 12.03 -1.55 12.54 -1.85 Q 13.05 -2.15 14.23 -2.15 Z M 11.55 -0.52 L 11.55 -0.52 Q 11.3 -1.32 10.38 -1.32 L 10.38 -1.32 Q 8.73 -1.32 7.16 0.99 Q 5.6 3.3 5.6 5.1 L 5.6 5.1 Q 5.6 5.85 6.2 5.85 L 6.2 5.85 Q 6.85 5.85 7.73 5.04 Q 8.6 4.23 9.3 3.13 L 9.3 3.13 Q 11.55 -0.35 11.55 -0.52 Z M 20.93 -2.2 L 20.93 -2.2 L 22.2 -2.17 L 22.45 -2.17 Q 22.08 -1.9 21.39 -0.55 Q 20.7 0.8 20.36 1.49 Q 20.03 2.18 19.61 3.34 Q 19.2 4.5 19.2 5.23 Q 19.2 5.95 19.7 5.95 L 19.7 5.95 Q 20.03 5.93 20.61 5.49 Q 21.2 5.05 21.59 4.57 Q 21.98 4.08 22.44 3.32 Q 22.9 2.55 23.24 1.99 Q 23.58 1.43 23.63 1.43 L 23.63 1.43 Q 23.8 1.43 23.8 1.89 Q 23.8 2.35 23.55 2.78 L 23.55 2.78 Q 22.48 4.55 21.78 5.5 Q 21.08 6.45 20.09 7.24 Q 19.1 8.03 18.3 8.03 L 18.3 8.03 Q 16.88 8.03 16.88 5.93 L 16.88 5.93 Q 16.88 4.5 17.43 2.7 Q 17.98 0.9 19.05 -0.77 L 19.05 -0.77 Q 18.18 -0.07 17.3 -0.07 L 17.3 -0.07 Q 17.03 -0.07 16.73 -0.2 L 16.73 -0.2 Q 14.95 3.3 14.81 3.3 Q 14.68 3.3 14.68 2.89 Q 14.68 2.48 14.99 1.74 Q 15.3 1 15.66 0.33 Q 16.03 -0.35 16.05 -0.42 L 16.05 -0.42 Q 15.15 -0.87 15.15 -1.87 L 15.15 -1.87 Q 15.15 -2.37 15.46 -2.77 Q 15.78 -3.17 16.33 -3.17 Q 16.88 -3.17 17.23 -2.82 L 17.23 -2.82 Q 17.18 -2.67 17.18 -2.37 L 17.18 -2.37 Q 17.18 -1.7 17.66 -1.31 Q 18.15 -0.92 18.85 -0.92 L 18.85 -0.92 Q 19.05 -0.92 19.15 -0.95 L 19.15 -0.95 Q 20.03 -2.2 20.93 -2.2 Z M 32.85 -2.15 L 32.85 -2.15 L 34.1 -2.12 L 34.35 -2.12 Q 33.53 -1.45 32.33 1.29 Q 31.13 4.03 31.13 5.28 L 31.13 5.28 Q 31.13 5.93 31.58 5.93 L 31.58 5.93 Q 33.03 5.93 35.28 1.65 L 35.28 1.65 Q 35.38 1.48 35.45 1.48 L 35.45 1.48 Q 35.6 1.48 35.6 1.94 Q 35.6 2.4 35.35 2.83 L 35.35 2.83 Q 32.28 8 30.2 8 L 30.2 8 Q 28.85 8 28.85 5.93 L 28.85 5.93 Q 28.85 4.38 29.38 2.88 L 29.38 2.88 Q 26.53 7.93 24.1 7.93 L 24.1 7.93 Q 22.43 7.93 22.43 5.63 L 22.43 5.63 Q 22.43 3.88 23.19 2.08 Q 23.95 0.28 25.38 -0.98 Q 26.8 -2.25 28.5 -2.25 L 28.5 -2.25 Q 29.3 -2.25 30 -1.88 Q 30.7 -1.52 30.93 -0.72 L 30.93 -0.72 Q 31.2 -1.3 31.78 -1.72 Q 32.35 -2.15 32.85 -2.15 Z M 30.78 -0.5 L 30.78 -0.5 Q 30.53 -1.3 29.6 -1.3 L 29.6 -1.3 Q 27.95 -1.3 26.4 0.99 Q 24.85 3.28 24.85 5.08 L 24.85 5.08 Q 24.85 5.85 25.45 5.85 L 25.45 5.85 Q 26.1 5.85 26.98 5.04 Q 27.85 4.23 28.55 3.13 L 28.55 3.13 Q 30.1 0.68 30.78 -0.5 Z M 51.98 2.83 L 51.98 2.83 Q 51.05 4.38 50.29 5.42 Q 49.53 6.45 48.55 7.23 Q 47.58 8 46.78 8 L 46.78 8 Q 45.3 8 45.3 6.3 L 45.3 6.3 Q 45.3 4.33 46.88 0.68 L 46.88 0.68 Q 47.23 -0.25 47.23 -0.6 L 47.23 -0.6 Q 47.23 -1.1 46.78 -1.1 L 46.78 -1.1 Q 46.5 -1.1 45.83 -0.77 Q 45.15 -0.45 44.54 0.2 Q 43.93 0.85 43.55 1.4 Q 43.18 1.95 42.73 3.05 Q 42.28 4.15 42.13 4.6 L 42.13 4.6 Q 41.4 6.85 41.15 7.85 L 41.15 7.85 L 38.7 7.85 Q 40 4.25 40.49 3 Q 40.98 1.75 41.08 1.45 L 41.08 1.45 L 41.3 0.75 Q 41.58 -0.05 41.58 -0.57 Q 41.58 -1.1 41.1 -1.1 L 41.1 -1.1 Q 40.7 -1.1 40.01 -0.75 Q 39.33 -0.4 38.68 0.28 Q 38.03 0.95 37.59 1.84 Q 37.15 2.73 36.89 3.38 Q 36.63 4.03 36.35 4.97 Q 36.08 5.9 35.86 6.49 Q 35.65 7.08 35.43 7.85 L 35.43 7.85 L 33 7.85 Q 33.28 6.8 33.6 5.98 L 33.6 5.98 L 35.23 1.83 Q 36.23 -0.67 36.23 -1.82 L 36.23 -1.82 Q 36.23 -2.07 36.18 -2.15 L 36.18 -2.15 L 37.23 -2.15 Q 38.08 -2.15 38.33 -1.98 Q 38.58 -1.82 38.58 -1.55 Q 38.58 -1.27 38.28 -0.27 L 38.28 -0.27 Q 40.48 -2.27 42.68 -2.27 L 42.68 -2.27 Q 44 -2.27 44 -1.17 L 44 -1.17 Q 44 -0.7 43.73 0 L 43.73 0 Q 46 -2.27 48.4 -2.27 L 48.4 -2.27 Q 49.7 -2.27 49.7 -1.17 L 49.7 -1.17 Q 49.7 -0.67 49.53 -0.22 Q 49.35 0.23 49.08 0.94 Q 48.8 1.65 48.63 2.12 Q 48.45 2.58 48.23 3.25 L 48.23 3.25 Q 47.75 4.63 47.75 5.29 Q 47.75 5.95 48.16 5.95 Q 48.58 5.95 49.2 5.4 Q 49.83 4.85 50.14 4.45 Q 50.45 4.05 50.91 3.32 Q 51.38 2.58 51.7 2.03 Q 52.03 1.48 52.08 1.48 L 52.08 1.48 Q 52.23 1.48 52.23 1.94 Q 52.23 2.4 51.98 2.83 Z" stroke-linecap="round"/>
</g>
</g>
</g>
</svg>
