<svg xmlns="http://www.w3.org/2000/svg" xmlns:xlink="http://www.w3.org/1999/xlink" version="1.1" width="160" height="50" viewBox="0 0 160 50" xml:space="preserve">
<desc>Created with Fabric.js 3.5.0</desc>
<defs>
</defs>
<rect x="0" y="0" width="100%" height="100%" fill="rgba(17,23,43,0)"/>
<g transform="matrix(1.1083 0 0 1.1333 81.9973 25.3325)" id="11990">
<g style="" vector-effect="non-scaling-stroke">
		<g transform="matrix(1 0 0 1 -30 25)">
<rect style="stroke: none; stroke-width: 1; stroke-dasharray: none; stroke-linecap: butt; stroke-dashoffset: 0; stroke-linejoin: miter; stroke-miterlimit: 4; is-custom-font: none; font-file-url: none; fill: rgb(255,255,255); fill-opacity: 0; fill-rule: nonzero; opacity: 1;" x="-50" y="-50" rx="0" ry="0" width="100" height="100"/>
</g>
		<g transform="matrix(1 0 0 1 16.1518 6.465)" id="7149">
<path style="stroke: none; stroke-width: 1; stroke-dasharray: none; stroke-linecap: butt; stroke-dashoffset: 0; stroke-linejoin: miter; stroke-miterlimit: 4; is-custom-font: none; font-file-url: none; fill: rgb(17,23,43); fill-rule: nonzero; opacity: 1;" transform=" translate(-0.0308, 1.345)" d="M -27.57 -2.86 L -30.32 -2.86 Q -30.61 -2.86 -30.61 -2.54 L -30.61 -2.54 L -30.61 3.72 Q -30.61 4.61 -30.19 4.98 Q -29.78 5.36 -28.87 5.36 L -28.87 5.36 L -27.46 5.36 Q -27.28 5.36 -27.18 5.49 Q -27.07 5.62 -27.07 5.8 L -27.07 5.8 L -27.1 7.39 Q -27.1 7.88 -27.67 8.01 L -27.67 8.01 Q -28.14 8.06 -28.67 8.1 Q -29.2 8.14 -29.74 8.15 Q -30.27 8.17 -30.76 8.17 L -30.76 8.17 Q -32.53 8.17 -33.57 7.32 Q -34.61 6.48 -34.61 4.81 L -34.61 4.81 L -34.61 -2.47 Q -34.61 -2.86 -34.95 -2.86 L -34.95 -2.86 L -36.54 -2.86 Q -37.03 -2.86 -37.03 -3.3 L -37.03 -3.3 L -37.03 -5.22 Q -37.03 -5.61 -36.56 -5.61 L -36.56 -5.61 L -34.77 -5.61 Q -34.53 -5.61 -34.51 -5.9 L -34.51 -5.9 L -34.14 -9.85 Q -34.12 -10.29 -33.75 -10.29 L -33.75 -10.29 L -30.92 -10.29 Q -30.5 -10.29 -30.5 -9.8 L -30.5 -9.8 L -30.5 -5.9 Q -30.5 -5.64 -30.24 -5.64 L -30.24 -5.64 L -27.51 -5.64 Q -27.05 -5.64 -27.05 -5.22 L -27.05 -5.22 L -27.05 -3.3 Q -27.05 -2.86 -27.57 -2.86 L -27.57 -2.86 Z M -20.88 -5.17 L -20.88 7.54 Q -20.88 7.88 -21.04 8.02 Q -21.2 8.17 -21.59 8.17 L -21.59 8.17 L -24.32 8.17 Q -24.65 8.17 -24.77 8.04 Q -24.89 7.91 -24.89 7.62 L -24.89 7.62 L -24.89 -5.12 Q -24.89 -5.61 -24.47 -5.61 L -24.47 -5.61 L -21.27 -5.61 Q -20.88 -5.61 -20.88 -5.17 L -20.88 -5.17 Z M -20.83 -10.63 L -20.83 -7.93 Q -20.83 -7.28 -21.53 -7.28 L -21.53 -7.28 L -24.34 -7.28 Q -24.68 -7.28 -24.8 -7.43 Q -24.91 -7.59 -24.91 -7.87 L -24.91 -7.87 L -24.91 -10.6 Q -24.91 -11.12 -24.47 -11.12 L -24.47 -11.12 L -21.25 -11.12 Q -20.83 -11.12 -20.83 -10.63 L -20.83 -10.63 Z M -4.27 7.57 L -4.27 7.57 Q -4.14 7.75 -4.24 7.96 Q -4.35 8.17 -4.66 8.17 L -4.66 8.17 L -8.07 8.17 Q -8.33 8.17 -8.48 8.02 Q -8.64 7.88 -8.77 7.62 L -8.77 7.62 L -11.45 2.27 Q -11.52 2.06 -11.63 2.03 Q -11.73 2.01 -11.89 2.16 L -11.89 2.16 L -13.73 3.98 Q -13.84 4.09 -13.9 4.23 Q -13.97 4.37 -13.97 4.63 L -13.97 4.63 L -13.97 7.54 Q -13.97 7.88 -14.12 8.02 Q -14.28 8.17 -14.64 8.17 L -14.64 8.17 L -17.4 8.17 Q -17.74 8.17 -17.85 8.04 Q -17.97 7.91 -17.97 7.62 L -17.97 7.62 L -17.97 -10.63 Q -17.97 -11.12 -17.56 -11.12 L -17.56 -11.12 L -14.36 -11.12 Q -13.97 -11.12 -13.97 -10.66 L -13.97 -10.66 L -13.97 0 Q -13.97 0.16 -13.89 0.21 Q -13.81 0.26 -13.66 0.08 L -13.66 0.08 L -8.77 -5.22 Q -8.38 -5.61 -8.07 -5.61 L -8.07 -5.61 L -5.28 -5.61 Q -4.92 -5.61 -4.84 -5.42 Q -4.76 -5.22 -5.02 -4.96 L -5.02 -4.96 L -8.66 -1.27 Q -8.82 -1.11 -8.83 -0.97 Q -8.85 -0.83 -8.72 -0.54 L -8.72 -0.54 L -4.27 7.57 Z M 5.45 -2.86 L 2.7 -2.86 Q 2.41 -2.86 2.41 -2.54 L 2.41 -2.54 L 2.41 3.72 Q 2.41 4.61 2.83 4.98 Q 3.24 5.36 4.15 5.36 L 4.15 5.36 L 5.56 5.36 Q 5.74 5.36 5.84 5.49 Q 5.95 5.62 5.95 5.8 L 5.95 5.8 L 5.92 7.39 Q 5.92 7.88 5.35 8.01 L 5.35 8.01 Q 4.88 8.06 4.35 8.1 Q 3.82 8.14 3.28 8.15 Q 2.75 8.17 2.26 8.17 L 2.26 8.17 Q 0.49 8.17 -0.55 7.32 Q -1.59 6.48 -1.59 4.81 L -1.59 4.81 L -1.59 -2.47 Q -1.59 -2.86 -1.93 -2.86 L -1.93 -2.86 L -3.52 -2.86 Q -4.01 -2.86 -4.01 -3.3 L -4.01 -3.3 L -4.01 -5.22 Q -4.01 -5.61 -3.54 -5.61 L -3.54 -5.61 L -1.75 -5.61 Q -1.51 -5.61 -1.49 -5.9 L -1.49 -5.9 L -1.12 -9.85 Q -1.1 -10.29 -0.73 -10.29 L -0.73 -10.29 L 2.1 -10.29 Q 2.52 -10.29 2.52 -9.8 L 2.52 -9.8 L 2.52 -5.9 Q 2.52 -5.64 2.78 -5.64 L 2.78 -5.64 L 5.51 -5.64 Q 5.97 -5.64 5.97 -5.22 L 5.97 -5.22 L 5.97 -3.3 Q 5.97 -2.86 5.45 -2.86 L 5.45 -2.86 Z M 14.03 8.43 L 14.03 8.43 Q 11.98 8.43 10.41 7.52 Q 8.83 6.61 7.95 5.01 Q 7.07 3.41 7.07 1.36 L 7.07 1.36 Q 7.07 -0.8 7.98 -2.43 Q 8.89 -4.05 10.47 -4.96 Q 12.06 -5.87 14.06 -5.87 L 14.06 -5.87 Q 16.17 -5.87 17.73 -4.95 Q 19.29 -4.03 20.16 -2.4 Q 21.03 -0.78 21.03 1.33 L 21.03 1.33 Q 21.03 3.41 20.14 5.01 Q 19.26 6.61 17.69 7.52 Q 16.11 8.43 14.03 8.43 L 14.03 8.43 Z M 14.06 5.78 L 14.06 5.78 Q 15.02 5.78 15.67 5.27 Q 16.32 4.76 16.65 3.75 Q 16.97 2.73 16.97 1.28 L 16.97 1.28 Q 16.97 -0.26 16.65 -1.26 Q 16.32 -2.26 15.67 -2.78 Q 15.02 -3.3 14.06 -3.3 L 14.06 -3.3 Q 13.12 -3.3 12.46 -2.78 Q 11.8 -2.26 11.46 -1.26 Q 11.12 -0.26 11.12 1.28 L 11.12 1.28 Q 11.12 2.76 11.46 3.76 Q 11.8 4.76 12.46 5.27 Q 13.12 5.78 14.06 5.78 L 14.06 5.78 Z M 36.99 7.57 L 36.99 7.57 Q 37.12 7.75 37.02 7.96 Q 36.91 8.17 36.6 8.17 L 36.6 8.17 L 33.2 8.17 Q 32.94 8.17 32.78 8.02 Q 32.62 7.88 32.49 7.62 L 32.49 7.62 L 29.82 2.27 Q 29.74 2.06 29.63 2.03 Q 29.53 2.01 29.37 2.16 L 29.37 2.16 L 27.53 3.98 Q 27.42 4.09 27.36 4.23 Q 27.29 4.37 27.29 4.63 L 27.29 4.63 L 27.29 7.54 Q 27.29 7.88 27.14 8.02 Q 26.98 8.17 26.62 8.17 L 26.62 8.17 L 23.86 8.17 Q 23.52 8.17 23.41 8.04 Q 23.29 7.91 23.29 7.62 L 23.29 7.62 L 23.29 -10.63 Q 23.29 -11.12 23.71 -11.12 L 23.71 -11.12 L 26.9 -11.12 Q 27.29 -11.12 27.29 -10.66 L 27.29 -10.66 L 27.29 0 Q 27.29 0.16 27.37 0.21 Q 27.45 0.26 27.61 0.08 L 27.61 0.08 L 32.49 -5.22 Q 32.88 -5.61 33.2 -5.61 L 33.2 -5.61 L 35.98 -5.61 Q 36.34 -5.61 36.42 -5.42 Q 36.5 -5.22 36.24 -4.96 L 36.24 -4.96 L 32.6 -1.27 Q 32.44 -1.11 32.43 -0.97 Q 32.42 -0.83 32.55 -0.54 L 32.55 -0.54 L 36.99 7.57 Z" stroke-linecap="round"/>
</g>
		<g transform="matrix(0.2566 0 0 0.2566 -50.1651 1.0016)" id="910143">
<path style="stroke: none; stroke-width: 1; stroke-dasharray: none; stroke-linecap: butt; stroke-dashoffset: 0; stroke-linejoin: miter; stroke-miterlimit: 4; is-custom-font: none; font-file-url: none; fill: rgb(17,23,43); fill-rule: nonzero; opacity: 1;" vector-effect="non-scaling-stroke" transform=" translate(-76, -76)" d="m 76 0 a 76 76 0 1 0 76 76 a 76 76 0 0 0 -76 -76 z m 34.26 67.53 c -6.78 0.75 -12.59 -1.93 -18.4 -5.35 c 0 0.56 0.17 17.92 -0.12 26.2 c -0.29 8.51 -3.33 16 -10 21.59 c -14.14 11.87 -34.21 5.46 -39 -12.69 c -2.6 -9.89 -0.34 -18.8 7.42 -25.85 c 4.37 -4 9.76 -5.78 15.54 -6.52 c 1.24 -0.16 2.49 -0.23 3.83 -0.35 v 13.44 c -1.7 0.42 -3.42 0.79 -5.11 1.29 a 23 23 0 0 0 -3.42 1.29 a 11 11 0 0 0 -4 17 a 12 12 0 0 0 11.47 4.84 c 4.37 -0.53 7.11 -3.28 8.73 -7.23 a 25 25 0 0 0 1.43 -9.76 c -0.06 -16.32 -0.06 -32.63 -0.09 -48.95 a 4.5 4.5 0 0 1 0.07 -0.5 h 13.05 c 1.46 10.92 7 17.84 18.6 18.82 z" stroke-linecap="round"/>
</g>
</g>
</g>
</svg>
