<svg xmlns="http://www.w3.org/2000/svg" xmlns:xlink="http://www.w3.org/1999/xlink" version="1.1" width="160" height="50" viewBox="0 0 160 50" xml:space="preserve">
<desc>Created with Fabric.js 3.5.0</desc>
<defs>
</defs>
<rect x="0" y="0" width="100%" height="100%" fill="rgba(17,23,43,0)"/>
<g transform="matrix(1 0 0 1 79 27)" id="334199">
<g style="" vector-effect="non-scaling-stroke">
		<g transform="matrix(1 0 0 1 -30 25)">
<rect style="stroke: none; stroke-width: 1; stroke-dasharray: none; stroke-linecap: butt; stroke-dashoffset: 0; stroke-linejoin: miter; stroke-miterlimit: 4; is-custom-font: none; font-file-url: none; fill: rgb(255,255,255); fill-opacity: 0; fill-rule: nonzero; opacity: 1;" x="-50" y="-50" rx="0" ry="0" width="100" height="100"/>
</g>
		<g transform="matrix(0.1011 0 0 0.1011 -51.9987 -0.332)" id="725537">
<path style="stroke: none; stroke-width: 1; stroke-dasharray: none; stroke-linecap: butt; stroke-dashoffset: 0; stroke-linejoin: miter; stroke-miterlimit: 4; is-custom-font: none; font-file-url: none; fill: rgb(17,23,43); fill-rule: nonzero; opacity: 1;" vector-effect="non-scaling-stroke" transform=" translate(-219.268, -219.2685)" d="M 414.41 24.123 C 398.333 8.042 378.963 0 356.315 0 H 82.228 C 59.58 0 40.21 8.042 24.126 24.123 C 8.045 40.207 0.003 59.576 0.003 82.225 v 274.084 c 0 22.647 8.042 42.018 24.123 58.102 c 16.084 16.084 35.454 24.126 58.102 24.126 h 274.084 c 22.648 0 42.018 -8.042 58.095 -24.126 c 16.084 -16.084 24.126 -35.454 24.126 -58.102 V 82.225 C 438.532 59.576 430.49 40.204 414.41 24.123 z M 335.471 168.735 c 0.191 1.713 0.288 4.278 0.288 7.71 c 0 15.989 -2.334 32.025 -6.995 48.104 c -4.661 16.087 -11.8 31.504 -21.416 46.254 c -9.606 14.749 -21.074 27.791 -34.396 39.115 c -13.325 11.32 -29.311 20.365 -47.968 27.117 c -18.648 6.762 -38.637 10.143 -59.953 10.143 c -33.116 0 -63.76 -8.952 -91.931 -26.836 c 4.568 0.568 9.329 0.855 14.275 0.855 c 27.6 0 52.439 -8.565 74.519 -25.7 c -12.941 -0.185 -24.506 -4.179 -34.688 -11.991 c -10.185 -7.803 -17.273 -17.699 -21.271 -29.691 c 4.947 0.76 8.658 1.137 11.132 1.137 c 4.187 0 9.042 -0.76 14.56 -2.279 c -13.894 -2.669 -25.598 -9.562 -35.115 -20.697 c -9.519 -11.136 -14.277 -23.84 -14.277 -38.114 v -0.571 c 10.085 4.755 19.602 7.229 28.549 7.422 c -17.321 -11.613 -25.981 -28.265 -25.981 -49.963 c 0 -10.66 2.758 -20.747 8.278 -30.264 c 15.035 18.464 33.311 33.213 54.816 44.252 c 21.507 11.038 44.54 17.227 69.092 18.558 c -0.95 -3.616 -1.427 -8.186 -1.427 -13.704 c 0 -16.562 5.853 -30.692 17.56 -42.399 c 11.703 -11.706 25.837 -17.561 42.394 -17.561 c 17.515 0 32.079 6.283 43.688 18.846 c 13.134 -2.474 25.892 -7.33 38.26 -14.56 c -4.757 14.652 -13.613 25.788 -26.55 33.402 c 12.368 -1.716 23.88 -4.95 34.537 -9.708 C 357.458 149.793 347.462 160.166 335.471 168.735 z" stroke-linecap="round"/>
</g>
		<g transform="matrix(1 0 0 1 21.4605 -0.305)" id="817649">
<path style="stroke: none; stroke-width: 1; stroke-dasharray: none; stroke-linecap: butt; stroke-dashoffset: 0; stroke-linejoin: miter; stroke-miterlimit: 4; is-custom-font: none; font-file-url: none; fill: rgb(17,23,43); fill-rule: nonzero; opacity: 1;" transform=" translate(-0.39, 0.305)" d="M -34.79 6.5 L -34.12 7.37 Q -34.01 7.48 -34.01 7.61 Q -34.01 7.73 -34.17 7.9 L -34.17 7.9 Q -35.41 8.99 -37.27 8.99 Q -39.13 8.99 -40.32 7.77 Q -41.51 6.56 -41.51 4.23 L -41.51 4.23 L -41.51 -3.1 L -43.08 -3.1 Q -43.47 -3.1 -43.47 -3.47 L -43.47 -3.47 L -43.47 -4.62 Q -43.47 -4.98 -43.08 -4.98 L -43.08 -4.98 L -41.51 -4.98 L -41.51 -7.81 Q -41.51 -8.2 -41.12 -8.2 L -41.12 -8.2 L -39.55 -8.2 Q -39.19 -8.2 -39.19 -7.81 L -39.19 -7.81 L -39.19 -4.98 L -35.63 -4.98 Q -35.24 -4.98 -35.24 -4.62 L -35.24 -4.62 L -35.24 -3.47 Q -35.24 -3.1 -35.63 -3.1 L -35.63 -3.1 L -39.19 -3.1 L -39.19 4.18 Q -39.19 5.58 -38.56 6.29 Q -37.93 7 -36.88 7 Q -35.83 7 -35.29 6.47 L -35.29 6.47 Q -35.01 6.22 -34.79 6.5 L -34.79 6.5 Z M -17.68 8.8 L -17.68 8.8 L -19.33 8.8 Q -19.92 8.8 -20.01 8.21 L -20.01 8.21 L -22.39 -1.17 L -22.44 -1.17 L -24.82 8.21 Q -24.93 8.8 -25.52 8.8 L -25.52 8.8 L -27.15 8.8 Q -27.65 8.8 -27.82 8.21 L -27.82 8.21 L -31.51 -3.1 L -33.08 -3.1 Q -33.42 -3.1 -33.42 -3.44 L -33.42 -3.44 L -33.42 -4.64 Q -33.42 -4.98 -33.08 -4.98 L -33.08 -4.98 L -27.85 -4.98 Q -27.51 -4.98 -27.51 -4.64 L -27.51 -4.64 L -27.51 -3.44 Q -27.51 -3.1 -27.85 -3.1 L -27.85 -3.1 L -29.13 -3.1 L -26.31 6.33 L -26.25 6.33 L -23.79 -3.1 L -24.88 -3.1 Q -25.21 -3.1 -25.21 -3.44 L -25.21 -3.44 L -25.21 -4.64 Q -25.21 -4.98 -24.88 -4.98 L -24.88 -4.98 L -19.95 -4.98 Q -19.61 -4.98 -19.61 -4.64 L -19.61 -4.64 L -19.61 -3.44 Q -19.61 -3.1 -19.95 -3.1 L -19.95 -3.1 L -21.04 -3.1 L -18.58 6.33 L -18.52 6.33 L -15.72 -3.1 L -16.98 -3.1 Q -17.35 -3.1 -17.35 -3.44 L -17.35 -3.44 L -17.35 -4.64 Q -17.35 -4.98 -16.98 -4.98 L -16.98 -4.98 L -11.77 -4.98 Q -11.44 -4.98 -11.44 -4.64 L -11.44 -4.64 L -11.44 -3.44 Q -11.44 -3.1 -11.77 -3.1 L -11.77 -3.1 L -13.31 -3.1 L -17.01 8.21 Q -17.23 8.8 -17.68 8.8 Z M -4.3 8.8 L -4.3 8.8 L -9.65 8.8 Q -10.01 8.8 -10.01 8.46 L -10.01 8.46 L -10.01 7.26 Q -10.01 6.92 -9.65 6.92 L -9.65 6.92 L -8.11 6.92 L -8.11 -3.1 L -9.65 -3.1 Q -10.01 -3.1 -10.01 -3.44 L -10.01 -3.44 L -10.01 -4.64 Q -10.01 -4.98 -9.65 -4.98 L -9.65 -4.98 L -6.12 -4.98 Q -5.78 -4.98 -5.78 -4.64 L -5.78 -4.64 L -5.78 6.92 L -4.3 6.92 Q -3.93 6.92 -3.93 7.26 L -3.93 7.26 L -3.93 8.46 Q -3.93 8.8 -4.3 8.8 Z M -5.88 -9.12 Q -5.42 -8.65 -5.42 -8 Q -5.42 -7.36 -5.88 -6.91 Q -6.34 -6.46 -6.99 -6.46 Q -7.63 -6.46 -8.09 -6.91 Q -8.55 -7.36 -8.55 -8 Q -8.55 -8.65 -8.09 -9.12 Q -7.63 -9.6 -6.99 -9.6 Q -6.34 -9.6 -5.88 -9.12 Z M 6.68 6.5 L 7.35 7.37 Q 7.46 7.48 7.46 7.61 Q 7.46 7.73 7.29 7.9 L 7.29 7.9 Q 6.06 8.99 4.2 8.99 Q 2.34 8.99 1.15 7.77 Q -0.04 6.56 -0.04 4.23 L -0.04 4.23 L -0.04 -3.1 L -1.61 -3.1 Q -2 -3.1 -2 -3.47 L -2 -3.47 L -2 -4.62 Q -2 -4.98 -1.61 -4.98 L -1.61 -4.98 L -0.04 -4.98 L -0.04 -7.81 Q -0.04 -8.2 0.35 -8.2 L 0.35 -8.2 L 1.92 -8.2 Q 2.28 -8.2 2.28 -7.81 L 2.28 -7.81 L 2.28 -4.98 L 5.84 -4.98 Q 6.23 -4.98 6.23 -4.62 L 6.23 -4.62 L 6.23 -3.47 Q 6.23 -3.1 5.84 -3.1 L 5.84 -3.1 L 2.28 -3.1 L 2.28 4.18 Q 2.28 5.58 2.91 6.29 Q 3.54 7 4.59 7 Q 5.64 7 6.17 6.47 L 6.17 6.47 Q 6.45 6.22 6.68 6.5 L 6.68 6.5 Z M 17.12 6.5 L 17.79 7.37 Q 17.91 7.48 17.91 7.61 Q 17.91 7.73 17.74 7.9 L 17.74 7.9 Q 16.51 8.99 14.64 8.99 Q 12.78 8.99 11.59 7.77 Q 10.4 6.56 10.4 4.23 L 10.4 4.23 L 10.4 -3.1 L 8.83 -3.1 Q 8.44 -3.1 8.44 -3.47 L 8.44 -3.47 L 8.44 -4.62 Q 8.44 -4.98 8.83 -4.98 L 8.83 -4.98 L 10.4 -4.98 L 10.4 -7.81 Q 10.4 -8.2 10.79 -8.2 L 10.79 -8.2 L 12.36 -8.2 Q 12.73 -8.2 12.73 -7.81 L 12.73 -7.81 L 12.73 -4.98 L 16.28 -4.98 Q 16.67 -4.98 16.67 -4.62 L 16.67 -4.62 L 16.67 -3.47 Q 16.67 -3.1 16.28 -3.1 L 16.28 -3.1 L 12.73 -3.1 L 12.73 4.18 Q 12.73 5.58 13.36 6.29 Q 13.99 7 15.04 7 Q 16.09 7 16.62 6.47 L 16.62 6.47 Q 16.9 6.22 17.12 6.5 L 17.12 6.5 Z M 31.21 2.19 L 31.21 2.19 L 21.13 2.19 Q 21.24 4.51 22.6 5.77 Q 23.95 7.03 25.66 7.03 Q 27.37 7.03 28.59 6.3 Q 29.81 5.58 30.23 4.88 L 30.23 4.88 Q 30.45 4.6 30.73 4.79 L 30.73 4.79 L 31.49 5.55 Q 31.65 5.72 31.65 5.84 Q 31.65 5.97 31.53 6.16 Q 31.4 6.36 31.01 6.78 Q 30.62 7.2 29.9 7.73 Q 29.19 8.26 28.06 8.63 Q 26.92 8.99 25.63 8.99 L 25.63 8.99 Q 22.69 8.99 20.72 7.06 Q 18.75 5.13 18.75 1.87 Q 18.75 -1.4 20.71 -3.29 Q 22.67 -5.18 25.51 -5.18 Q 28.35 -5.18 29.97 -3.34 Q 31.6 -1.51 31.6 1.6 L 31.6 1.6 Q 31.6 1.71 31.6 1.82 L 31.6 1.82 Q 31.6 2.19 31.21 2.19 Z M 29.27 0.48 Q 29.19 -1.26 28.18 -2.29 Q 27.17 -3.33 25.49 -3.33 Q 23.81 -3.33 22.61 -2.38 Q 21.41 -1.42 21.18 0.48 L 21.18 0.48 L 29.27 0.48 Z M 39.52 8.8 L 39.52 8.8 L 34.17 8.8 Q 33.81 8.8 33.81 8.46 L 33.81 8.46 L 33.81 7.26 Q 33.81 6.92 34.17 6.92 L 34.17 6.92 L 35.71 6.92 L 35.71 -3.1 L 34.17 -3.1 Q 33.81 -3.1 33.81 -3.44 L 33.81 -3.44 L 33.81 -4.64 Q 33.81 -4.98 34.17 -4.98 L 34.17 -4.98 L 37.45 -4.98 Q 37.81 -4.98 37.81 -4.64 L 37.81 -4.64 L 37.81 -1.14 L 37.9 -1.14 Q 37.98 -1.59 38.49 -2.38 Q 38.99 -3.16 39.59 -3.68 Q 40.19 -4.2 41.33 -4.62 Q 42.46 -5.04 43.89 -5.04 L 43.89 -5.04 Q 44.25 -5.04 44.25 -4.67 L 44.25 -4.67 L 44.25 -3.19 Q 44.25 -2.82 43.89 -2.82 L 43.89 -2.82 L 43.3 -2.82 Q 40.89 -2.82 39.47 -1.28 Q 38.04 0.26 38.04 2.22 L 38.04 2.22 L 38.04 6.92 L 39.52 6.92 Q 39.89 6.92 39.89 7.26 L 39.89 7.26 L 39.89 8.46 Q 39.89 8.8 39.52 8.8 Z" stroke-linecap="round"/>
</g>
</g>
</g>
</svg>
