<svg xmlns="http://www.w3.org/2000/svg" xmlns:xlink="http://www.w3.org/1999/xlink" version="1.1" width="160" height="50" viewBox="0 0 160 50" xml:space="preserve">
<desc>Created with Fabric.js 3.5.0</desc>
<defs>
</defs>
<rect x="0" y="0" width="100%" height="100%" fill="rgba(17,23,43,0)"/>
<g transform="matrix(0.0807 0 0 0.0838 23.3525 26.9554)" id="528833">
<g style="" vector-effect="non-scaling-stroke">
		<g transform="matrix(1 0 0 1 3.2 77.2954)" id="Layer_1">
<path style="stroke: none; stroke-width: 1; stroke-dasharray: none; stroke-linecap: butt; stroke-dashoffset: 0; stroke-linejoin: miter; stroke-miterlimit: 4; is-custom-font: none; font-file-url: none; fill: rgb(17,23,43); fill-rule: nonzero; opacity: 1;" transform=" translate(-255.4, -329.4954)" d="M 254.8 265.4 c 0 0 -0.4 0 -0.8 0 c -14 40.8 -28 81.6 -42 122.4 c 29.6 8.4 58.4 7.6 86.8 -2 C 284 345.4 269.6 305.4 254.8 265.4 z" stroke-linecap="round"/>
</g>
		<g transform="matrix(1 0 0 1 -101.8272 35.2)" id="Layer_1">
<path style="stroke: none; stroke-width: 1; stroke-dasharray: none; stroke-linecap: butt; stroke-dashoffset: 0; stroke-linejoin: miter; stroke-miterlimit: 4; is-custom-font: none; font-file-url: none; fill: rgb(17,23,43); fill-rule: nonzero; opacity: 1;" transform=" translate(-150.3729, -287.4)" d="M 123.2 195.4 c -0.4 0 -0.4 0 -0.8 0 c -15.6 37.2 -16.4 74.8 -0.4 112.4 c 13.6 32 36.4 55.6 67.6 71.6 c 0.4 0 0.4 -0.4 0.8 -0.4 C 168 317.4 145.6 256.6 123.2 195.4 z" stroke-linecap="round"/>
</g>
		<g transform="matrix(1 0 0 1 -11.5895 -27.8272)" id="Layer_1">
<path style="stroke: none; stroke-width: 1; stroke-dasharray: none; stroke-linecap: butt; stroke-dashoffset: 0; stroke-linejoin: miter; stroke-miterlimit: 4; is-custom-font: none; font-file-url: none; fill: rgb(17,23,43); fill-rule: nonzero; opacity: 1;" transform=" translate(-240.6105, -224.3728)" d="M 338.8 211.8 c -3.2 -6 -6.8 -11.6 -10.4 -17.6 c -3.2 -5.6 -5.6 -11.6 -6.4 -18 c -1.6 -13.2 7.2 -25.6 20.4 -28 c 1.2 -0.4 2.8 -0.4 5.2 -0.8 c -39.2 -32.8 -82.8 -44.4 -131.6 -32 c -34.8 8.8 -61.6 28.8 -82.4 59.2 c 7.6 0 14.4 0 20.8 0 c 8.4 -0.4 16.8 -1.2 25.2 -1.6 c 4 -0.4 6.4 1.6 6.8 4.8 c 0.4 3.6 -1.2 6 -5.6 6.4 c -1.2 0.4 -2.4 0.4 -3.6 0.4 c -4 0.4 -7.6 0.8 -12 1.2 c 17.2 51.2 34.4 102 51.2 152.4 c 0.8 -0.4 1.2 -0.8 1.2 -1.2 c 10 -29.6 20 -59.2 29.6 -89.2 c 0.4 -1.2 0 -3.2 -0.4 -4.4 c -6.4 -18.4 -13.2 -36.4 -20 -54.8 c -0.8 -2.4 -2 -3.2 -4.4 -3.2 c -4 0 -8 -0.8 -12 -1.2 c -3.2 -0.4 -4.8 -2.8 -4.8 -6 c 0.4 -3.2 2.4 -5.2 5.6 -5.2 c 1.6 0 2.8 0.4 4.4 0.4 c 15.2 0.4 30.8 0.8 46 1.2 c 8 0 16.4 -0.8 24.4 -1.2 c 3.6 0 6 2 6.4 5.2 c 0.4 3.2 -1.6 5.6 -4.8 6 c -1.6 0.4 -2.8 0.4 -4.4 0.4 c -4 0.4 -8 0.8 -12 1.2 c 17.2 50.8 34 100.8 51.2 152 c 0.4 -1.2 0.8 -1.6 0.8 -2 c 7.2 -23.6 14 -47.2 21.2 -70.8 C 350 246.6 348.4 228.6 338.8 211.8 z" stroke-linecap="round"/>
</g>
		<g transform="matrix(1 0 0 1 0 0)" id="Layer_1">
<path style="stroke: none; stroke-width: 1; stroke-dasharray: none; stroke-linecap: butt; stroke-dashoffset: 0; stroke-linejoin: miter; stroke-miterlimit: 4; is-custom-font: none; font-file-url: none; fill: rgb(17,23,43); fill-rule: nonzero; opacity: 1;" transform=" translate(-252.2, -252.2)" d="M 377.6 0.2 H 126.4 C 56.8 0.2 0 57 0 126.6 v 251.6 c 0 69.2 56.8 126 126.4 126 H 378 c 69.6 0 126.4 -56.8 126.4 -126.4 V 126.6 C 504 57 447.2 0.2 377.6 0.2 z M 408 260.2 c 0 1.2 0 2 0 3.2 c -1.2 20.8 -6.4 40.8 -16 59.2 c -25.2 47.6 -64 75.6 -117.6 84.4 c -4.8 0.8 -9.6 1.2 -14.4 1.2 h -16 c -0.8 0 -2 0 -3.2 0 c -20.8 -1.2 -40.4 -6 -58.4 -15.6 c -48 -25.2 -76 -64 -84.8 -117.6 c -1.2 -5.2 -1.6 -9.6 -1.6 -14.8 v -16 c 0 -0.8 0 -2 0 -3.2 c 1.2 -21.2 6.4 -41.2 16.4 -59.6 c 25.2 -47.2 64 -74.8 116.8 -83.6 c 4.8 -0.8 10 -1.2 14.8 -1.2 h 16 c 1.2 0 2 0 3.2 0 c 20.4 1.2 40 6 58.4 15.6 c 48 25.2 76.4 64 85.2 118 c 0.8 4.8 1.2 9.6 1.2 14.4 V 260.2 z" stroke-linecap="round"/>
</g>
		<g transform="matrix(1 0 0 1 106.5562 27.4)" id="Layer_1">
<path style="stroke: none; stroke-width: 1; stroke-dasharray: none; stroke-linecap: butt; stroke-dashoffset: 0; stroke-linejoin: miter; stroke-miterlimit: 4; is-custom-font: none; font-file-url: none; fill: rgb(17,23,43); fill-rule: nonzero; opacity: 1;" transform=" translate(-358.7563, -279.6)" d="M 376.8 185.4 c 0.4 10.8 0.4 20.8 -1.2 31.2 c -2 11.6 -5.6 22.8 -9.6 34 c -14 38.8 -27.2 77.6 -40.4 116.4 c -0.8 2 -1.6 4.4 -2 6.4 c 0.4 0 0.4 0.4 0.8 0.4 c 38 -23.6 61.2 -57.6 68 -102 C 396.8 241.4 391.6 212.6 376.8 185.4 z" stroke-linecap="round"/>
</g>
</g>
</g>
<g transform="matrix(1 0 0 1 103.3211 30.0877)" style="" id="7183">
		
<path xml:space="preserve" font-family="Scheherazade" font-size="31" font-style="normal" font-weight="bold" style="stroke: none; stroke-width: 1; stroke-dasharray: none; stroke-linecap: butt; stroke-dashoffset: 0; stroke-linejoin: miter; stroke-miterlimit: 4; is-custom-font: none; font-file-url: none; fill: rgb(17,23,43); fill-rule: nonzero; opacity: 1; white-space: pre;" d="M-33.54-5.73L-33.54-4.82Q-33.89-4.82-34.16-4.72Q-34.42-4.61-34.65-4.34Q-34.87-4.07-35.09-3.61Q-35.30-3.16-35.57-2.48L-35.57-2.48L-40.51 10.07L-41.43 10.07L-45.08 0.84L-48.98 10.07L-49.91 10.07L-54.70-2.51Q-54.96-3.16-55.15-3.60Q-55.34-4.04-55.58-4.31Q-55.82-4.58-56.18-4.70Q-56.54-4.82-57.11-4.82L-57.11-4.82L-57.11-5.73L-49.47-5.73L-49.47-4.82Q-49.83-4.82-50.15-4.77Q-50.47-4.72-50.71-4.61Q-50.95-4.51-51.09-4.34Q-51.24-4.17-51.24-3.95L-51.24-3.95Q-51.24-3.72-51.18-3.42Q-51.12-3.11-50.97-2.75L-50.97-2.75L-48.23 4.47L-45.83-1.10Q-46.21-2.13-46.50-2.84Q-46.79-3.55-47.08-3.99Q-47.38-4.43-47.74-4.63Q-48.10-4.82-48.62-4.82L-48.62-4.82L-48.62-5.73L-40.96-5.73L-40.96-4.82Q-41.40-4.82-41.78-4.79Q-42.17-4.75-42.45-4.67Q-42.73-4.60-42.90-4.45Q-43.06-4.31-43.06-4.11L-43.06-4.11Q-43.06-3.79-42.85-3.23L-42.85-3.23L-39.93 4.26L-37.30-1.89Q-37.21-2.11-37.10-2.39Q-36.99-2.67-36.90-2.95Q-36.80-3.23-36.74-3.48Q-36.68-3.73-36.68-3.87L-36.68-3.87Q-36.68-4.48-37.02-4.65Q-37.37-4.82-37.99-4.82L-37.99-4.82L-37.99-5.73L-33.54-5.73ZM-22.11 4.30L-22.11 4.30Q-22.11 5.47-22.47 6.51Q-22.83 7.56-23.50 8.35Q-24.17 9.15-25.13 9.62Q-26.10 10.09-27.31 10.09L-27.31 10.09Q-28.56 10.09-29.56 9.63Q-30.56 9.18-31.25 8.41Q-31.94 7.65-32.31 6.67Q-32.68 5.68-32.68 4.62L-32.68 4.62Q-32.68 3.53-32.32 2.51Q-31.95 1.49-31.27 0.70Q-30.59-0.09-29.62-0.55Q-28.65-1.02-27.43-1.02L-27.43-1.02Q-26.25-1.02-25.26-0.61Q-24.28-0.19-23.58 0.54Q-22.89 1.26-22.50 2.23Q-22.11 3.20-22.11 4.30ZM-25.41 5.21L-25.41 5.21Q-25.41 4.29-25.57 3.37Q-25.73 2.46-26.05 1.73Q-26.37 1.00-26.83 0.56Q-27.29 0.11-27.90 0.11L-27.90 0.11Q-28.15 0.11-28.42 0.29Q-28.68 0.46-28.89 0.87Q-29.09 1.28-29.22 1.96Q-29.35 2.64-29.35 3.67L-29.35 3.67Q-29.35 4.74-29.13 5.70Q-28.91 6.65-28.55 7.37Q-28.18 8.09-27.72 8.51Q-27.26 8.94-26.78 8.94L-26.78 8.94Q-26.11 8.94-25.76 8.08Q-25.41 7.23-25.41 5.21ZM-13.14-1.02L-13.14-1.02Q-12.78-1.02-12.44-0.91Q-12.11-0.80-11.86-0.59Q-11.61-0.39-11.47-0.09Q-11.32 0.20-11.32 0.57L-11.32 0.57Q-11.32 1.16-11.65 1.61Q-11.97 2.06-12.67 2.06L-12.67 2.06Q-13.12 2.06-13.42 1.91Q-13.71 1.75-13.93 1.56Q-14.15 1.38-14.33 1.22Q-14.52 1.06-14.73 1.06L-14.73 1.06Q-14.89 1.06-15.08 1.22Q-15.27 1.37-15.47 1.63Q-15.67 1.90-15.86 2.23Q-16.06 2.56-16.24 2.93L-16.24 2.93L-16.24 7.23Q-16.24 7.73-16.18 8.04Q-16.12 8.35-15.98 8.52Q-15.85 8.69-15.61 8.76Q-15.36 8.83-15.00 8.83L-15.00 8.83L-15.00 9.74L-20.78 9.74L-20.78 8.83Q-20.37 8.83-20.12 8.77Q-19.87 8.71-19.74 8.53Q-19.60 8.35-19.55 8.04Q-19.50 7.73-19.50 7.23L-19.50 7.23L-19.50 2.47Q-19.50 1.56-19.63 1.25Q-19.77 0.93-20.13 0.93L-20.13 0.93Q-20.31 0.93-20.63 0.97Q-20.95 1.02-21.12 1.10L-21.12 1.10L-21.39 0.25L-17.15-1.02L-16.24-1.02L-16.24 1.19Q-15.98 0.78-15.64 0.38Q-15.29-0.02-14.89-0.34Q-14.50-0.65-14.05-0.83Q-13.61-1.02-13.14-1.02ZM1.88 8.81L-2.36 10.09L-3.27 10.09L-3.27 8.71Q-3.98 9.42-4.69 9.75Q-5.40 10.09-6.31 10.09L-6.31 10.09Q-7.07 10.09-7.83 9.76Q-8.60 9.44-9.22 8.78Q-9.84 8.12-10.23 7.13Q-10.63 6.14-10.63 4.82L-10.63 4.82Q-10.63 3.49-10.19 2.40Q-9.75 1.32-9.04 0.57Q-8.33-0.19-7.44-0.61Q-6.55-1.02-5.65-1.02L-5.65-1.02Q-5.00-1.02-4.40-0.81Q-3.80-0.60-3.27-0.12L-3.27-0.12L-3.27-2.99Q-3.27-3.88-3.41-4.20Q-3.54-4.52-3.91-4.52L-3.91-4.52Q-4.12-4.52-4.40-4.48Q-4.69-4.43-4.89-4.35L-4.89-4.35L-5.16-5.20L-0.92-6.47L-0.02-6.47L-0.02 6.59Q-0.02 7.48 0.12 7.81Q0.26 8.13 0.62 8.13L0.62 8.13Q0.80 8.13 1.10 8.09Q1.39 8.04 1.60 7.97L1.60 7.97L1.88 8.81ZM-3.27 7.23L-3.27 2.52Q-3.27 2.00-3.45 1.55Q-3.63 1.10-3.92 0.75Q-4.21 0.41-4.59 0.22Q-4.96 0.02-5.34 0.02L-5.34 0.02Q-5.72 0.02-6.08 0.22Q-6.43 0.41-6.71 0.85Q-6.98 1.29-7.14 2.01Q-7.31 2.73-7.31 3.79L-7.31 3.79Q-7.31 4.92-7.11 5.78Q-6.92 6.64-6.60 7.21Q-6.28 7.79-5.87 8.07Q-5.46 8.36-5.03 8.36L-5.03 8.36Q-4.53 8.36-4.09 8.01Q-3.66 7.66-3.27 7.23L-3.27 7.23ZM15.15-1.52L15.15-1.52Q15.15-0.63 14.81 0.18Q14.47 0.99 13.72 1.61Q12.97 2.23 11.79 2.59Q10.61 2.96 8.93 2.96L8.93 2.96Q8.72 2.96 8.54 2.95Q8.36 2.94 8.20 2.93L8.20 2.93Q8.04 2.91 7.89 2.90L7.89 2.90L7.89 6.97Q7.89 7.53 7.97 7.88Q8.05 8.24 8.28 8.45Q8.51 8.66 8.92 8.75Q9.34 8.83 10.02 8.83L10.02 8.83L10.02 9.74L2.18 9.74L2.18 8.83Q2.88 8.83 3.29 8.75Q3.71 8.66 3.94 8.44Q4.16 8.22 4.23 7.84Q4.30 7.45 4.30 6.86L4.30 6.86L4.30-3.16Q4.30-3.70 4.23-4.03Q4.16-4.35 3.94-4.53Q3.71-4.70 3.29-4.76Q2.88-4.82 2.18-4.82L2.18-4.82L2.18-5.73L9.57-5.73Q10.88-5.73 11.92-5.43Q12.96-5.13 13.68-4.58Q14.40-4.04 14.77-3.26Q15.15-2.48 15.15-1.52ZM11.35-1.52L11.35-1.52Q11.35-2.16 11.22-2.69Q11.08-3.22 10.75-3.60Q10.41-3.98 9.85-4.18Q9.28-4.38 8.40-4.38L8.40-4.38Q8.31-4.38 8.22-4.38Q8.13-4.37 8.05-4.35L8.05-4.35Q7.96-4.34 7.89-4.32L7.89-4.32L7.89 1.58Q7.98 1.59 8.05 1.61L8.05 1.61Q8.13 1.63 8.21 1.63Q8.29 1.64 8.40 1.64L8.40 1.64Q9.26 1.64 9.84 1.39Q10.41 1.14 10.75 0.72Q11.08 0.29 11.22-0.28Q11.35-0.86 11.35-1.52ZM24.17-1.02L24.17-1.02Q24.54-1.02 24.87-0.91Q25.20-0.80 25.45-0.59Q25.70-0.39 25.85-0.09Q25.99 0.20 25.99 0.57L25.99 0.57Q25.99 1.16 25.66 1.61Q25.34 2.06 24.64 2.06L24.64 2.06Q24.19 2.06 23.89 1.91Q23.60 1.75 23.38 1.56Q23.16 1.38 22.98 1.22Q22.80 1.06 22.58 1.06L22.58 1.06Q22.42 1.06 22.23 1.22Q22.04 1.37 21.84 1.63Q21.65 1.90 21.45 2.23Q21.25 2.56 21.07 2.93L21.07 2.93L21.07 7.23Q21.07 7.73 21.13 8.04Q21.19 8.35 21.33 8.52Q21.46 8.69 21.71 8.76Q21.95 8.83 22.31 8.83L22.31 8.83L22.31 9.74L16.53 9.74L16.53 8.83Q16.94 8.83 17.19 8.77Q17.44 8.71 17.57 8.53Q17.71 8.35 17.76 8.04Q17.82 7.73 17.82 7.23L17.82 7.23L17.82 2.47Q17.82 1.56 17.68 1.25Q17.54 0.93 17.18 0.93L17.18 0.93Q17.00 0.93 16.68 0.97Q16.36 1.02 16.20 1.10L16.20 1.10L15.92 0.25L20.16-1.02L21.07-1.02L21.07 1.19Q21.33 0.78 21.68 0.38Q22.02-0.02 22.42-0.34Q22.81-0.65 23.26-0.83Q23.70-1.02 24.17-1.02ZM35.33 5.59L36.00 5.88Q35.83 6.67 35.49 7.42Q35.15 8.18 34.60 8.77Q34.06 9.36 33.30 9.72Q32.54 10.09 31.54 10.09L31.54 10.09Q30.42 10.09 29.55 9.69Q28.67 9.28 28.06 8.54Q27.46 7.80 27.15 6.78Q26.84 5.76 26.84 4.50L26.84 4.50Q26.84 3.23 27.28 2.20Q27.73 1.17 28.45 0.45Q29.17-0.27 30.08-0.65Q30.98-1.04 31.92-1.04L31.92-1.04Q32.74-1.04 33.48-0.79Q34.22-0.54 34.78 0.01Q35.34 0.57 35.67 1.44Q36.00 2.32 36.00 3.56L36.00 3.56L29.46 3.56Q29.46 4.29 29.68 5.02Q29.91 5.76 30.36 6.34Q30.80 6.92 31.44 7.29Q32.07 7.65 32.89 7.65L32.89 7.65Q33.65 7.65 34.25 7.20Q34.86 6.74 35.33 5.59L35.33 5.59ZM29.44 2.58L32.94 2.58Q32.94 2.23 32.85 1.80Q32.76 1.37 32.54 0.99Q32.32 0.61 31.96 0.35Q31.61 0.10 31.08 0.10L31.08 0.10Q30.77 0.10 30.48 0.27Q30.18 0.44 29.95 0.77Q29.71 1.10 29.58 1.56Q29.44 2.02 29.44 2.58L29.44 2.58ZM45.94 6.74L45.94 6.74Q45.94 7.53 45.65 8.15Q45.36 8.77 44.86 9.20Q44.35 9.63 43.66 9.86Q42.97 10.09 42.19 10.09L42.19 10.09Q41.64 10.09 41.17 9.97Q40.70 9.86 40.32 9.72Q39.93 9.59 39.65 9.47Q39.37 9.36 39.22 9.36L39.22 9.36Q39.14 9.36 39.08 9.45Q39.02 9.54 38.97 9.66Q38.92 9.77 38.88 9.88Q38.84 10.00 38.81 10.04L38.81 10.04L37.93 10.04L37.93 5.71L38.81 5.71Q38.93 6.33 39.20 6.93Q39.46 7.53 39.85 8.01Q40.23 8.48 40.75 8.77Q41.26 9.06 41.88 9.06L41.88 9.06Q42.63 9.06 42.93 8.70Q43.23 8.35 43.23 7.82L43.23 7.82Q43.23 7.27 42.84 6.89Q42.44 6.51 41.86 6.18Q41.28 5.85 40.60 5.50Q39.92 5.15 39.33 4.70Q38.75 4.24 38.36 3.62Q37.96 2.99 37.96 2.08L37.96 2.08Q37.96 1.35 38.24 0.78Q38.52 0.20 38.99-0.20Q39.46-0.60 40.07-0.81Q40.67-1.02 41.34-1.02L41.34-1.02Q41.81-1.02 42.21-0.96Q42.61-0.90 42.96-0.82Q43.31-0.74 43.61-0.68Q43.91-0.62 44.20-0.62L44.20-0.62Q44.41-0.62 44.54-0.81Q44.67-1.01 44.74-1.18L44.74-1.18L45.50-1.18L45.50 2.85L44.62 2.85Q44.44 2.25 44.13 1.71Q43.82 1.17 43.42 0.78Q43.02 0.38 42.54 0.16Q42.06-0.07 41.54-0.07L41.54-0.07Q40.91-0.07 40.58 0.23Q40.25 0.54 40.25 1.00L40.25 1.00Q40.25 1.55 40.67 1.94Q41.10 2.34 41.72 2.68Q42.35 3.03 43.09 3.38Q43.84 3.73 44.46 4.18Q45.09 4.64 45.52 5.25Q45.94 5.86 45.94 6.74ZM56.08 6.74L56.08 6.74Q56.08 7.53 55.79 8.15Q55.51 8.77 55.00 9.20Q54.49 9.63 53.80 9.86Q53.11 10.09 52.33 10.09L52.33 10.09Q51.78 10.09 51.31 9.97Q50.84 9.86 50.46 9.72Q50.07 9.59 49.79 9.47Q49.51 9.36 49.36 9.36L49.36 9.36Q49.29 9.36 49.22 9.45Q49.16 9.54 49.11 9.66Q49.06 9.77 49.02 9.88Q48.98 10.00 48.95 10.04L48.95 10.04L48.07 10.04L48.07 5.71L48.95 5.71Q49.07 6.33 49.34 6.93Q49.60 7.53 49.99 8.01Q50.38 8.48 50.89 8.77Q51.40 9.06 52.02 9.06L52.02 9.06Q52.77 9.06 53.07 8.70Q53.37 8.35 53.37 7.82L53.37 7.82Q53.37 7.27 52.98 6.89Q52.58 6.51 52.00 6.18Q51.42 5.85 50.74 5.50Q50.06 5.15 49.47 4.70Q48.89 4.24 48.50 3.62Q48.10 2.99 48.10 2.08L48.10 2.08Q48.10 1.35 48.38 0.78Q48.66 0.20 49.13-0.20Q49.60-0.60 50.21-0.81Q50.81-1.02 51.48-1.02L51.48-1.02Q51.95-1.02 52.35-0.96Q52.75-0.90 53.10-0.82Q53.45-0.74 53.75-0.68Q54.05-0.62 54.34-0.62L54.34-0.62Q54.55-0.62 54.68-0.81Q54.81-1.01 54.89-1.18L54.89-1.18L55.64-1.18L55.64 2.85L54.76 2.85Q54.58 2.25 54.27 1.71Q53.96 1.17 53.56 0.78Q53.16 0.38 52.68 0.16Q52.21-0.07 51.68-0.07L51.68-0.07Q51.06-0.07 50.72 0.23Q50.39 0.54 50.39 1.00L50.39 1.00Q50.39 1.55 50.81 1.94Q51.24 2.34 51.87 2.68Q52.49 3.03 53.24 3.38Q53.98 3.73 54.61 4.18Q55.23 4.64 55.66 5.25Q56.08 5.86 56.08 6.74Z"/></g>
</svg>
