<svg xmlns="http://www.w3.org/2000/svg" xmlns:xlink="http://www.w3.org/1999/xlink" version="1.1" width="160" height="50" viewBox="0 0 160 50" xml:space="preserve">
<desc>Created with Fabric.js 3.5.0</desc>
<defs>
</defs>
<rect x="0" y="0" width="100%" height="100%" fill="rgba(255,255,255,0)"/>
<g transform="matrix(1 0 0 1 80 27)" id="449414">
<g style="" vector-effect="non-scaling-stroke">
		<g transform="matrix(1 0 0 1 -30 25)">
<rect style="stroke: none; stroke-width: 1; stroke-dasharray: none; stroke-linecap: butt; stroke-dashoffset: 0; stroke-linejoin: miter; stroke-miterlimit: 4; is-custom-font: none; font-file-url: none; fill: rgb(255,255,255); fill-opacity: 0; fill-rule: nonzero; opacity: 1;" x="-50" y="-50" rx="0" ry="0" width="100" height="100"/>
</g>
		<g transform="matrix(1 0 0 1 20.9944 5.33)" id="7149">
<path style="stroke: none; stroke-width: 1; stroke-dasharray: none; stroke-linecap: butt; stroke-dashoffset: 0; stroke-linejoin: miter; stroke-miterlimit: 4; is-custom-font: none; font-file-url: none; fill: rgb(17,23,43); fill-rule: nonzero; opacity: 1;" transform=" translate(0.46, 1.98)" d="M -46.41 0.02 L -53.4 -11.92 L -49.56 -11.92 L -46.46 -6 Q -45.3 -3.72 -44.81 -2.7 L -44.81 -2.7 L -44.71 -2.7 Q -44.15 -3.77 -43.04 -6 L -43.04 -6 L -39.96 -11.92 L -36.11 -11.92 L -43.06 0.02 L -43.06 8.17 L -46.41 8.17 L -46.41 0.02 Z M -33.46 0.86 L -33.46 0.86 Q -33.46 3.39 -32.42 4.64 Q -31.38 5.88 -29.99 5.88 L -29.99 5.88 Q -28.62 5.88 -27.57 4.64 Q -26.53 3.39 -26.53 0.86 L -26.53 0.86 Q -26.53 -1.73 -27.57 -2.97 Q -28.62 -4.2 -29.99 -4.2 L -29.99 -4.2 Q -31.36 -4.2 -32.41 -2.97 Q -33.46 -1.73 -33.46 0.86 Z M -36.77 0.86 L -36.77 0.86 Q -36.77 -2.42 -35.04 -4.68 Q -33.31 -6.94 -29.99 -6.94 L -29.99 -6.94 Q -26.69 -6.94 -24.96 -4.68 Q -23.23 -2.42 -23.23 0.86 L -23.23 0.86 Q -23.23 1.87 -23.42 2.89 Q -23.61 3.9 -24.1 4.96 Q -24.58 6.01 -25.31 6.81 Q -26.05 7.61 -27.26 8.12 Q -28.46 8.62 -29.99 8.62 L -29.99 8.62 Q -31.48 8.62 -32.69 8.13 Q -33.9 7.63 -34.65 6.86 Q -35.39 6.09 -35.89 5.03 Q -36.38 3.98 -36.58 2.95 Q -36.77 1.92 -36.77 0.86 Z M -20.77 2.86 L -20.77 2.86 L -20.77 -6.48 L -17.54 -6.48 L -17.54 2.45 Q -17.54 5.88 -15.13 5.88 L -15.13 5.88 Q -13.69 5.88 -12.87 4.65 Q -12.06 3.42 -12.06 1.72 L -12.06 1.72 L -12.06 -6.48 L -8.86 -6.48 L -8.86 8.17 L -11.96 8.17 L -11.96 6.47 L -11.98 6.47 Q -12.34 7.25 -13.34 7.94 Q -14.35 8.62 -15.84 8.62 L -15.84 8.62 Q -16.73 8.62 -17.53 8.36 Q -18.33 8.09 -19.09 7.49 Q -19.86 6.9 -20.31 5.7 Q -20.77 4.51 -20.77 2.86 Z M -1.04 -9.05 L -6.83 -9.05 L -6.83 -11.92 L 8.1 -11.92 L 8.1 -9.05 L 2.31 -9.05 L 2.31 8.17 L -1.04 8.17 L -1.04 -9.05 Z M 8.46 2.86 L 8.46 2.86 L 8.46 -6.48 L 11.68 -6.48 L 11.68 2.45 Q 11.68 5.88 14.09 5.88 L 14.09 5.88 Q 15.54 5.88 16.35 4.65 Q 17.16 3.42 17.16 1.72 L 17.16 1.72 L 17.16 -6.48 L 20.36 -6.48 L 20.36 8.17 L 17.27 8.17 L 17.27 6.47 L 17.24 6.47 Q 16.88 7.25 15.88 7.94 Q 14.88 8.62 13.38 8.62 L 13.38 8.62 Q 12.49 8.62 11.69 8.36 Q 10.89 8.09 10.13 7.49 Q 9.37 6.9 8.91 5.7 Q 8.46 4.51 8.46 2.86 Z M 27.14 8.17 L 24.02 8.17 L 24.02 -12.58 L 27.19 -12.58 L 27.19 -4.83 Q 27.78 -5.7 28.75 -6.32 Q 29.73 -6.94 30.98 -6.94 L 30.98 -6.94 Q 33.67 -6.94 35.42 -4.87 Q 37.17 -2.8 37.17 0.83 L 37.17 0.83 Q 37.17 2.48 36.79 3.83 Q 36.41 5.17 35.8 6.05 Q 35.19 6.92 34.37 7.52 Q 33.54 8.12 32.7 8.37 Q 31.87 8.62 31 8.62 L 31 8.62 Q 29.71 8.62 28.65 7.93 Q 27.6 7.23 27.14 6.29 L 27.14 6.29 L 27.14 8.17 Z M 27.17 0.83 L 27.17 0.83 Q 27.17 3.17 28.09 4.52 Q 29.02 5.88 30.52 5.88 L 30.52 5.88 Q 31.99 5.88 32.93 4.59 Q 33.87 3.29 33.87 0.83 L 33.87 0.83 Q 33.87 -1.48 32.97 -2.84 Q 32.07 -4.2 30.52 -4.2 L 30.52 -4.2 Q 29 -4.2 28.08 -2.81 Q 27.17 -1.43 27.17 0.83 Z M 39 0.78 L 39 0.78 Q 39 -2.75 40.94 -4.85 Q 42.88 -6.94 45.83 -6.94 L 45.83 -6.94 Q 48.72 -6.94 50.6 -4.83 Q 52.48 -2.72 52.48 0.65 L 52.48 0.65 Q 52.48 1.31 52.41 1.95 L 52.41 1.95 L 42.25 1.95 Q 42.25 3.62 43.25 4.83 Q 44.26 6.03 46.01 6.03 L 46.01 6.03 Q 47.23 6.03 48.15 5.44 Q 49.08 4.84 49.56 3.9 L 49.56 3.9 L 52.25 4.82 Q 51.54 6.44 49.94 7.53 Q 48.34 8.62 45.96 8.62 L 45.96 8.62 Q 42.88 8.62 40.94 6.49 Q 39 4.36 39 0.78 Z M 42.3 -0.31 L 42.3 -0.31 L 49.21 -0.31 Q 49.21 -1.99 48.32 -3.17 Q 47.43 -4.35 45.83 -4.35 L 45.83 -4.35 Q 44.23 -4.35 43.28 -3.14 Q 42.33 -1.94 42.3 -0.31 Z" stroke-linecap="round"/>
</g>
		<g transform="matrix(0.0982 0 0 0.0982 -57.4679 0.9489)" id="Capa_1">
<path style="stroke: none; stroke-width: 1; stroke-dasharray: none; stroke-linecap: butt; stroke-dashoffset: 0; stroke-linejoin: miter; stroke-miterlimit: 4; is-custom-font: none; font-file-url: none; fill: rgb(17,23,43); fill-rule: nonzero; opacity: 1;" vector-effect="non-scaling-stroke" transform=" translate(-219.268, -219.2685)" d="M 414.41 24.123 C 398.333 8.042 378.963 0 356.315 0 H 82.228 C 59.58 0 40.21 8.042 24.126 24.123 C 8.045 40.207 0.003 59.576 0.003 82.225 v 274.084 c 0 22.647 8.042 42.018 24.123 58.102 c 16.084 16.084 35.454 24.126 58.102 24.126 h 274.084 c 22.648 0 42.018 -8.042 58.095 -24.126 c 16.084 -16.084 24.126 -35.454 24.126 -58.102 V 82.225 C 438.532 59.576 430.49 40.204 414.41 24.123 z M 258.958 63.378 h 19.13 v 77.654 c 0 4.57 0.089 7.045 0.28 7.426 c 0.192 3.046 1.719 4.567 4.572 4.567 c 3.806 0 7.807 -2.948 11.991 -8.848 V 63.378 h 19.13 v 105.637 h -19.13 h -0.007 v -11.425 c -7.803 8.563 -15.129 12.85 -21.98 12.85 c -6.088 0 -10.181 -2.568 -12.278 -7.708 c -1.144 -3.424 -1.708 -8.66 -1.708 -15.704 V 63.378 L 258.958 63.378 z M 186.725 97.64 c 0 -11.038 1.999 -19.32 5.996 -24.838 c 5.138 -7.232 12.559 -10.85 22.266 -10.85 c 9.329 0 16.754 3.621 22.268 10.85 c 4 5.519 5.999 13.8 5.999 24.838 v 37.117 c 0 11.421 -1.999 19.701 -5.999 24.839 c -5.514 7.236 -12.939 10.852 -22.268 10.852 c -9.707 0 -17.128 -3.619 -22.266 -10.852 c -3.997 -5.52 -5.996 -13.8 -5.996 -24.839 V 97.64 z M 135.331 27.119 l 15.133 55.677 l 14.56 -55.677 h 21.414 l -25.697 84.51 h 0.004 v 57.386 h -21.127 v -57.386 c -2.096 -10.468 -6.473 -25.505 -13.134 -45.108 c -4.377 -13.134 -6.567 -19.701 -6.567 -19.701 l -6.855 -19.701 H 135.331 L 135.331 27.119 z M 370.593 371.729 c -1.903 8.18 -5.948 15.126 -12.139 20.842 c -6.181 5.708 -13.363 9.041 -21.55 9.996 c -26.073 2.851 -65.288 4.28 -117.628 4.28 c -52.344 0 -91.553 -1.43 -117.628 -4.28 c -8.183 -0.955 -15.367 -4.288 -21.555 -9.996 c -6.186 -5.716 -10.229 -12.662 -12.133 -20.842 c -3.805 -15.991 -5.708 -40.737 -5.708 -74.233 c 0 -32.935 1.903 -57.67 5.708 -74.233 c 1.905 -8.375 5.948 -15.371 12.133 -20.988 c 6.188 -5.617 13.466 -8.901 21.842 -9.851 c 25.882 -2.859 64.997 -4.284 117.341 -4.284 c 52.535 0 91.746 1.429 117.628 4.284 c 8.187 0.953 15.41 4.233 21.693 9.851 c 6.283 5.614 10.38 12.609 12.282 20.988 c 3.61 15.797 5.421 40.539 5.421 74.233 C 376.301 330.991 374.397 355.733 370.593 371.729 z" stroke-linecap="round"/>
</g>
		<g transform="matrix(0.0982 0 0 0.0982 -67.3368 8.3924)" id="Capa_1">
<polygon style="stroke: none; stroke-width: 1; stroke-dasharray: none; stroke-linecap: butt; stroke-dashoffset: 0; stroke-linejoin: miter; stroke-miterlimit: 4; is-custom-font: none; font-file-url: none; fill: rgb(17,23,43); fill-rule: nonzero; opacity: 1;" vector-effect="non-scaling-stroke" points="-33.119,-50.3905 -10.849,-50.3905 -10.849,70.3765 10.278,70.3765 10.278,-50.3905 33.119,-50.3905 33.119,-70.3765 -33.119,-70.3765 "/>
</g>
		<g transform="matrix(0.0982 0 0 0.0982 -61.1267 10.228)" id="Capa_1">
<path style="stroke: none; stroke-width: 1; stroke-dasharray: none; stroke-linecap: butt; stroke-dashoffset: 0; stroke-linejoin: miter; stroke-miterlimit: 4; is-custom-font: none; font-file-url: none; fill: rgb(17,23,43); fill-rule: nonzero; opacity: 1;" vector-effect="non-scaling-stroke" transform=" translate(-182.01, -313.7605)" d="M 190.149 340.607 c -4.187 5.896 -8.186 8.847 -11.991 8.847 c -2.665 0 -4.093 -1.427 -4.283 -4.281 c -0.191 -0.38 -0.287 -2.854 -0.287 -7.426 v -77.088 h -18.843 v 82.796 c 0 7.234 0.572 12.374 1.715 15.413 c 1.712 5.332 5.711 7.994 11.991 7.994 c 7.042 0 14.275 -4.281 21.698 -12.847 v 11.424 h 19.126 V 260.666 h -19.126 V 340.607 z" stroke-linecap="round"/>
</g>
		<g transform="matrix(0.0982 0 0 0.0982 -54.117 8.4623)" id="Capa_1">
<path style="stroke: none; stroke-width: 1; stroke-dasharray: none; stroke-linecap: butt; stroke-dashoffset: 0; stroke-linejoin: miter; stroke-miterlimit: 4; is-custom-font: none; font-file-url: none; fill: rgb(17,23,43); fill-rule: nonzero; opacity: 1;" vector-effect="non-scaling-stroke" transform=" translate(-253.3905, -295.7805)" d="M 264.099 259.235 c -6.852 0 -13.326 3.806 -19.411 11.423 v -45.966 h -19.13 v 140.753 h 19.13 v -10.279 c 6.276 7.802 12.755 11.703 19.411 11.703 c 7.806 0 12.847 -3.997 15.126 -11.991 c 1.334 -3.997 1.998 -10.944 1.998 -20.841 v -41.682 c 0 -10.089 -0.671 -17.132 -1.998 -21.129 C 276.945 263.232 271.904 259.235 264.099 259.235 z M 262.384 335.468 c 0 9.325 -2.758 13.982 -8.281 13.989 c -3.23 0 -6.376 -1.525 -9.422 -4.571 v -63.954 c 3.046 -3.038 6.191 -4.564 9.422 -4.564 c 5.523 0 8.281 4.753 8.281 14.271 V 335.468 z" stroke-linecap="round"/>
</g>
		<g transform="matrix(0.0982 0 0 0.0982 -47.1362 10.1586)" id="Capa_1">
<path style="stroke: none; stroke-width: 1; stroke-dasharray: none; stroke-linecap: butt; stroke-dashoffset: 0; stroke-linejoin: miter; stroke-miterlimit: 4; is-custom-font: none; font-file-url: none; fill: rgb(17,23,43); fill-rule: nonzero; opacity: 1;" vector-effect="non-scaling-stroke" transform=" translate(-324.4785, -313.0535)" d="M 333.466 335.324 c 0 1.998 -0.049 3.565 -0.137 4.709 c -0.093 1.143 -0.145 1.81 -0.145 1.998 c -1.14 4.945 -3.997 7.419 -8.565 7.419 c -6.472 0 -9.709 -4.853 -9.709 -14.558 v -18.555 h 37.973 v -21.703 c 0 -11.037 -1.995 -19.219 -5.995 -24.551 c -5.134 -7.231 -12.56 -10.852 -22.269 -10.852 s -17.319 3.62 -22.843 10.852 c -3.806 5.14 -5.708 13.329 -5.708 24.551 v 36.832 c 0 11.231 1.998 19.418 5.995 24.558 c 5.523 7.231 13.23 10.852 23.131 10.852 c 10.088 0 17.699 -3.806 22.843 -11.423 c 2.282 -3.429 3.716 -7.234 4.284 -11.42 c 0.377 -2.666 0.568 -6.759 0.568 -12.278 v -2.563 v -0.007 h -19.417 v 6.14 H 333.466 z M 314.917 290.925 c 0 -9.705 3.142 -14.558 9.422 -14.558 c 6.283 0 9.421 4.853 9.421 14.558 v 9.712 h -18.843 V 290.925 z" stroke-linecap="round"/>
</g>
		<g transform="matrix(0.0982 0 0 0.0982 -57.8883 -9.187)" id="Capa_1">
<path style="stroke: none; stroke-width: 1; stroke-dasharray: none; stroke-linecap: butt; stroke-dashoffset: 0; stroke-linejoin: miter; stroke-miterlimit: 4; is-custom-font: none; font-file-url: none; fill: rgb(17,23,43); fill-rule: nonzero; opacity: 1;" vector-effect="non-scaling-stroke" transform=" translate(-214.987, -116.0525)" d="M 214.987 153.025 c 6.091 0 9.135 -4.851 9.135 -14.558 v -44.54 c 0 -9.895 -3.044 -14.847 -9.135 -14.847 c -6.09 0 -9.135 4.952 -9.135 14.847 v 44.54 C 205.852 148.171 208.897 153.025 214.987 153.025 z" stroke-linecap="round"/>
</g>
</g>
</g>
</svg>
